<svg width="48" height="49" viewBox="0 0 48 49" fill="none" xmlns="http://www.w3.org/2000/svg">
<path d="M40.72 30.5125C38.6023 30.2512 36.4995 29.8807 34.42 29.4025C33.9123 29.2329 33.3694 29.1971 32.8439 29.2987C32.3183 29.4003 31.8279 29.6359 31.42 29.9825C30.89 30.5225 29.36 32.0325 27.77 33.5925C22.0732 30.7921 17.4661 26.1814 14.67 20.4825C16.22 18.8925 17.67 17.3725 18.26 16.8425C18.6067 16.4347 18.8422 15.9442 18.9438 15.4187C19.0454 14.8931 19.0097 14.3502 18.84 13.8425C18.3612 11.7598 17.9907 9.65365 17.73 7.53255C17.7021 7.26244 17.6194 7.00085 17.4871 6.76373C17.3548 6.5266 17.1756 6.3189 16.9604 6.15329C16.7452 5.98768 16.4985 5.86763 16.2354 5.80045C15.9723 5.73327 15.6983 5.72038 15.43 5.76255H6.91C6.55832 5.7943 6.22911 5.9491 5.98033 6.1997C5.73156 6.45031 5.57917 6.78064 5.55 7.13255C5 14.8225 9.29 23.0525 10.16 24.6325V24.6925L10.28 24.9225C13.3943 30.324 17.8786 34.8082 23.28 37.9225V37.9225L23.72 38.1725C25.72 39.2325 33.67 43.2325 41.1 42.6825C41.4555 42.6579 41.7906 42.5075 42.0452 42.2583C42.2999 42.0091 42.4576 41.6774 42.49 41.3225V32.8125C42.5322 32.5443 42.5193 32.2703 42.4521 32.0072C42.3849 31.7441 42.2649 31.4974 42.0993 31.2822C41.9336 31.067 41.726 30.8878 41.4888 30.7554C41.2517 30.6231 40.9901 30.5405 40.72 30.5125Z" stroke="black" style="stroke:black;stroke-opacity:1;" stroke-linecap="round" stroke-linejoin="round"/>
</svg>
