<svg width="32" height="54" viewBox="0 0 32 54" fill="none" xmlns="http://www.w3.org/2000/svg">
<path d="M29.975 1.22236C27.4531 0.954825 24.9185 0.824635 22.3825 0.832355C13.975 0.832355 8.75 6.18736 8.75 14.8074V20.6599H1.6875C1.356 20.6599 1.038 20.7915 0.8036 21.026C0.5692 21.2604 0.4375 21.5783 0.4375 21.9099V31.5349C0.4375 31.8664 0.5692 32.1843 0.8036 32.4187C1.038 32.6532 1.356 32.7849 1.6875 32.7849H8.75V52.0849C8.75 52.4164 8.8817 52.7343 9.1161 52.9687C9.3505 53.2032 9.6685 53.3349 10 53.3349H19.945C20.2765 53.3349 20.5945 53.2032 20.8289 52.9687C21.0633 52.7343 21.195 52.4164 21.195 52.0849V32.7849H28.235C28.5385 32.785 28.8316 32.6747 29.0598 32.4746C29.288 32.2745 29.4355 31.9983 29.475 31.6974L30.7175 22.0724C30.7406 21.8959 30.7258 21.7166 30.6741 21.5464C30.6224 21.3761 30.5349 21.2189 30.4175 21.0852C30.3001 20.9515 30.1555 20.8444 29.9934 20.771C29.8313 20.6977 29.6554 20.6598 29.4775 20.6599H21.195V15.7624C21.195 13.3374 21.6825 12.3249 24.715 12.3249H29.8125C30.144 12.3249 30.462 12.1932 30.6964 11.9587C30.9308 11.7243 31.0625 11.4064 31.0625 11.0749V2.46236C31.0626 2.15888 30.9524 1.86571 30.7523 1.63754C30.5522 1.40938 30.2759 1.26181 29.975 1.22236ZM28.5625 9.8224L24.7125 9.82489C19.32 9.82489 18.695 13.2149 18.695 15.7624V21.9124C18.695 22.2434 18.8264 22.561 19.0602 22.7954C19.2941 23.0297 19.6114 23.1617 19.9425 23.1624H28.0575L27.135 30.2874H19.945C19.6135 30.2874 19.2955 30.4191 19.0611 30.6535C18.8267 30.8879 18.695 31.2058 18.695 31.5374V50.8324H11.25V31.5374C11.25 31.2058 11.1183 30.8879 10.8839 30.6535C10.6495 30.4191 10.3315 30.2874 10 30.2874H2.94V23.1624H10C10.3315 23.1624 10.6495 23.0307 10.8839 22.7962C11.1183 22.5618 11.25 22.2439 11.25 21.9124V14.8074C11.25 7.6224 15.4125 3.33236 22.3825 3.33236C24.905 3.33236 27.1825 3.46986 28.5625 3.58985V9.8224Z" fill="black" style="fill:black;fill-opacity:1;"/>
</svg>
