<svg width="60" height="61" viewBox="0 0 60 61" fill="none" xmlns="http://www.w3.org/2000/svg">
<path d="M29.9975 18.6748C26.9316 18.6748 23.9913 19.8927 21.8233 22.0607C19.6554 24.2286 18.4375 27.1689 18.4375 30.2348C18.4375 33.3007 19.6554 36.241 21.8233 38.409C23.9913 40.5769 26.9316 41.7948 29.9975 41.7948C33.0634 41.7948 36.0037 40.5769 38.1717 38.409C40.3396 36.241 41.5575 33.3007 41.5575 30.2348C41.5575 27.1689 40.3396 24.2286 38.1717 22.0607C36.0037 19.8927 33.0634 18.6748 29.9975 18.6748ZM29.9975 37.7423C28.0057 37.7423 26.0955 36.9511 24.6871 35.5427C23.2787 34.1343 22.4875 32.2241 22.4875 30.2323C22.4875 28.2405 23.2787 26.3303 24.6871 24.9219C26.0955 23.5135 28.0057 22.7223 29.9975 22.7223C31.9893 22.7223 33.8995 23.5135 35.3079 24.9219C36.7163 26.3303 37.5075 28.2405 37.5075 30.2323C37.5075 32.2241 36.7163 34.1343 35.3079 35.5427C33.8995 36.9511 31.9893 37.7423 29.9975 37.7423Z" fill="black" style="fill:black;fill-opacity:1;"/>
<path d="M42.015 20.9447C43.5034 20.9447 44.71 19.7381 44.71 18.2497C44.71 16.7613 43.5034 15.5547 42.015 15.5547C40.5266 15.5547 39.32 16.7613 39.32 18.2497C39.32 19.7381 40.5266 20.9447 42.015 20.9447Z" fill="black" style="fill:black;fill-opacity:1;"/>
<path d="M51.3325 15.5101C50.7538 14.0156 49.8693 12.6583 48.7358 11.5253C47.6024 10.3922 46.2448 9.50829 44.75 8.93012C43.0008 8.27351 41.153 7.91847 39.285 7.88012C36.8775 7.77512 36.115 7.74512 30.01 7.74512C23.905 7.74512 23.1225 7.74512 20.735 7.88012C18.8685 7.91651 17.0219 8.27162 15.275 8.93012C13.7798 9.50762 12.4219 10.3913 11.2883 11.5244C10.1548 12.6576 9.27058 14.0152 8.6925 15.5101C8.03577 17.2591 7.68154 19.1072 7.645 20.9751C7.5375 23.3801 7.505 24.1426 7.505 30.2501C7.505 36.3551 7.505 37.1326 7.645 39.5251C7.6825 41.3951 8.035 43.2401 8.6925 44.9926C9.2722 46.487 10.1572 47.8441 11.2911 48.9771C12.4249 50.11 13.7827 50.9941 15.2775 51.5726C17.0211 52.2556 18.8684 52.6361 20.74 52.6976C23.1475 52.8026 23.91 52.8351 30.015 52.8351C36.12 52.8351 36.9025 52.8351 39.29 52.6976C41.1578 52.6596 43.0056 52.3055 44.755 51.6501C46.2494 51.0706 47.6066 50.1859 48.7399 49.0525C49.8733 47.9192 50.758 46.562 51.3375 45.0676C51.995 43.3176 52.3475 41.4726 52.385 39.6026C52.4925 37.1976 52.525 36.4351 52.525 30.3276C52.525 24.2201 52.525 23.4451 52.385 21.0526C52.3559 19.1583 51.9998 17.2832 51.3325 15.5101ZM48.2875 39.3401C48.2714 40.7809 48.0084 42.2082 47.51 43.5601C47.1346 44.5323 46.5598 45.4151 45.8227 46.1518C45.0856 46.8885 44.2024 47.4627 43.23 47.8376C41.8931 48.3337 40.4809 48.5967 39.055 48.6151C36.68 48.7251 36.01 48.7526 29.92 48.7526C23.825 48.7526 23.2025 48.7526 20.7825 48.6151C19.3573 48.5977 17.9458 48.3347 16.61 47.8376C15.6342 47.4651 14.7475 46.8918 14.0072 46.155C13.267 45.4182 12.6896 44.5341 12.3125 43.5601C11.8211 42.2227 11.5583 40.8122 11.535 39.3876C11.4275 37.0126 11.4025 36.3426 11.4025 30.2526C11.4025 24.1601 11.4025 23.5376 11.535 21.1151C11.5512 19.6752 11.8141 18.2487 12.3125 16.8976C13.075 14.9251 14.6375 13.3726 16.61 12.6176C17.9465 12.123 19.3576 11.86 20.7825 11.8401C23.16 11.7326 23.8275 11.7026 29.92 11.7026C36.0125 11.7026 36.6375 11.7026 39.055 11.8401C40.481 11.8573 41.8934 12.1203 43.23 12.6176C44.2023 12.9933 45.0854 13.5681 45.8224 14.3052C46.5595 15.0423 47.1343 15.9253 47.51 16.8976C48.0014 18.235 48.2642 19.6455 48.2875 21.0701C48.395 23.4476 48.4225 24.1151 48.4225 30.2076C48.4225 36.2976 48.4225 36.9526 48.315 39.3426H48.2875V39.3401Z" fill="black" style="fill:black;fill-opacity:1;"/>
</svg>
