<svg width="48" height="49" viewBox="0 0 48 49" fill="none" xmlns="http://www.w3.org/2000/svg">
<path d="M24 4.73242C20.0695 4.73242 16.3 6.29381 13.5207 9.0731C10.7414 11.8524 9.18 15.6219 9.18 19.5524V19.5524V20.6324C9.78 28.7524 16.52 35.2824 24 43.7324C31.81 34.9124 38.82 28.2324 38.82 19.5524C38.82 15.6219 37.2586 11.8524 34.4793 9.0731C31.7 6.29381 27.9305 4.73242 24 4.73242ZM24 12.4324C25.4106 12.4324 26.7895 12.8508 27.9623 13.6347C29.135 14.4186 30.0489 15.5328 30.5882 16.8362C31.1276 18.1396 31.2682 19.5737 30.9923 20.9571C30.7163 22.3405 30.0363 23.6109 29.0381 24.6076C28.04 25.6044 26.7686 26.2827 25.3849 26.5566C24.0011 26.8306 22.5672 26.688 21.2645 26.1468C19.9619 25.6056 18.849 24.6902 18.0668 23.5164C17.2845 22.3425 16.868 20.963 16.87 19.5524C16.8727 17.6632 17.625 15.8522 18.9619 14.5172C20.2987 13.1822 22.1107 12.4324 24 12.4324Z" stroke="black" style="stroke:black;stroke-opacity:1;" stroke-linecap="round" stroke-linejoin="round"/>
</svg>
