<svg width="40" height="29" viewBox="0 0 40 29" fill="none" xmlns="http://www.w3.org/2000/svg">
<path d="M39.5 25.7324V2.73242C39.5 2.20199 39.2893 1.69328 38.9142 1.31821C38.5391 0.943136 38.0304 0.732422 37.5 0.732422H2.5C1.96957 0.732422 1.46086 0.943136 1.08579 1.31821C0.710714 1.69328 0.5 2.20199 0.5 2.73242V25.7324C0.5 26.2629 0.710714 26.7716 1.08579 27.1466C1.46086 27.5217 1.96957 27.7324 2.5 27.7324H37.5C38.0304 27.7324 38.5391 27.5217 38.9142 27.1466C39.2893 26.7716 39.5 26.2629 39.5 25.7324Z" stroke="black" style="stroke:black;stroke-opacity:1;" stroke-linecap="round" stroke-linejoin="round"/>
<path d="M39.5 5.21387L20 14.2329L0.5 5.21387" stroke="black" style="stroke:black;stroke-opacity:1;" stroke-linecap="round" stroke-linejoin="round"/>
</svg>
