<svg width="40" height="41" viewBox="0 0 40 41" fill="none" xmlns="http://www.w3.org/2000/svg">
<path d="M20 2.31543C23.5436 2.31543 27.0076 3.36622 29.954 5.33493C32.9004 7.30364 35.1968 10.1018 36.5528 13.3757C37.9089 16.6495 38.2637 20.252 37.5724 23.7275C36.8811 27.203 35.1747 30.3954 32.669 32.9011C30.1633 35.4068 26.9709 37.1132 23.4954 37.8045C20.0199 38.4958 16.4174 38.141 13.1436 36.7849C9.86975 35.4289 7.07155 33.1324 5.10284 30.1861C3.13413 27.2397 2.08334 23.7757 2.08334 20.2321C2.08554 15.481 3.9739 10.9251 7.33345 7.56554C10.693 4.20599 15.2489 2.31764 20 2.31543V2.31543Z" stroke="black" style="stroke:black;stroke-opacity:1;" stroke-linecap="round" stroke-linejoin="round"/>
<path d="M20 22.3161C21.1506 22.3161 22.0833 21.3833 22.0833 20.2327C22.0833 19.0822 21.1506 18.1494 20 18.1494C18.8494 18.1494 17.9167 19.0822 17.9167 20.2327C17.9167 21.3833 18.8494 22.3161 20 22.3161Z" stroke="black" style="stroke:black;stroke-opacity:1;" stroke-linecap="round" stroke-linejoin="round"/>
<path d="M20 18.149V9.76562M21.75 21.3573L31.9167 27.8573" stroke="black" style="stroke:black;stroke-opacity:1;" stroke-linecap="round" stroke-linejoin="round"/>
</svg>
