<svg width="60" height="40" viewBox="0 0 60 40" fill="none" xmlns="http://www.w3.org/2000/svg">
<path d="M0 5.44925C0 3.22265 1.52344 2.34375 3.39844 2.22655L12.1289 2.28515C12.6562 2.28515 13.125 2.63675 13.3008 3.16405C15.293 9.60935 17.7539 13.5938 20.6836 18.1054C20.8594 18.4571 21.1523 18.6329 21.4453 18.6329C21.6797 18.6329 21.914 18.5156 22.0898 18.2226L22.2656 17.5781L22.3242 7.44145C22.3242 5.97655 21.6211 5.74215 19.9804 5.50785C19.3359 5.39065 18.9258 4.80465 18.9258 4.21875C18.9258 4.10155 18.9258 3.98435 18.9844 3.86715C19.8047 1.34765 22.3828 0.0585995 26.0156 0.0585995L29.2969 0C31.9922 0 34.4531 1.17185 34.4531 4.62895V17.9296C34.6875 18.1054 34.9219 18.2226 35.2148 18.2226C35.6836 18.2226 36.2695 17.9296 36.7383 17.1679C39.7851 12.8906 43.2422 7.79295 43.7109 5.09765C43.7109 4.98045 43.7695 4.92185 43.8281 4.80465C44.4726 3.51565 46.1133 2.63675 46.8164 2.40235C46.9336 2.34375 47.1094 2.28515 47.3437 2.28515H56.4258L57.0117 2.34375C57.8906 2.34375 58.5351 2.92965 58.8281 3.45705C59.3554 4.27735 59.2383 5.15625 59.2969 5.50785V5.91795C58.418 11.25 52.3242 17.2266 49.7461 21.0938C49.3945 21.5625 49.2187 21.9727 49.2187 22.3829C49.2187 22.7344 49.3945 23.0859 49.6875 23.4375L58.2422 34.2188C58.7109 34.8633 58.9453 35.625 58.9453 36.2696C58.9453 38.2032 57.1289 39.3164 55.3711 39.4921L54.375 39.5508H45.4687C45.293 39.5508 45.1758 39.6094 45 39.6094C44.0039 39.6094 43.1836 39.0821 42.5976 38.4961C40.7226 36.211 38.9062 33.8671 37.0898 31.5821C36.7383 31.1133 36.6211 31.0547 36.2695 30.8204C35.8594 32.5196 35.5078 34.2774 35.0976 36.0352L34.9219 37.0312C34.6289 38.0859 33.8672 39.1992 32.4609 39.4921L31.6406 39.5508H25.8984C15.7617 39.5508 6.67969 25.1367 0.292969 7.14845C0.117188 6.67965 0 6.03515 0 5.44925ZM35.2148 20.625C33.6914 20.625 31.9922 19.746 31.9922 18.1054V4.62895C31.9922 3.04685 31.289 2.46095 29.3554 2.46095L26.0156 2.57815C24.1406 2.57815 23.0859 2.87105 22.207 3.45705C23.5547 4.10155 24.7851 4.98045 24.7851 7.44145V17.7539C24.6094 19.8046 22.9101 21.1524 21.2695 21.1524C20.1562 21.1524 19.1601 20.5078 18.5742 19.4531C15.9375 15.4687 13.7109 11.7188 11.7773 6.32815L11.25 4.80465L3.45703 4.74605C2.40234 4.74605 2.51953 4.80465 2.51953 5.33205C2.51953 5.68355 2.57813 6.15235 2.63672 6.44535L3.86719 9.72655C10.2539 26.25 18.2812 37.0899 25.8984 37.0899H31.7578C32.5781 37.0899 32.5195 36.0938 32.6953 35.5079L33.8086 30.3516C34.043 29.8243 34.2187 29.3555 34.6289 28.9454C35.0976 28.4766 35.625 28.3008 36.1523 28.3008C37.2656 28.3008 38.3203 29.1796 39.0234 30L44.0039 36.3282C44.414 36.9727 44.7656 37.0899 45 37.0899H54.668C55.6054 37.0899 56.4258 36.7968 56.4258 36.2109C56.4258 36.0351 56.3672 35.8008 56.25 35.625L47.7539 25.0196C47.0508 24.1406 46.7578 23.2618 46.7578 22.3829C46.7578 21.4454 47.1094 20.5078 47.6953 19.6875C50.1562 15.996 55.4297 10.7226 56.6601 6.38675L56.8359 5.62505C56.7773 5.33205 56.7773 5.09765 56.7187 4.80465H47.5195C46.9336 5.03905 46.4648 5.39065 46.1133 5.85935L45.7617 6.97265C44.414 10.7226 40.7226 15.8789 38.0859 19.4531C37.207 20.2734 36.2109 20.625 35.2148 20.625Z" fill="black" style="fill:black;fill-opacity:1;"/>
</svg>
